<?xml version="1.0" encoding="UTF-8"?>
<svg id="Layer_1" xmlns="http://www.w3.org/2000/svg" version="1.1" viewBox="0 0 841.89 595.28">
  <!-- Generator: Adobe Illustrator 29.1.0, SVG Export Plug-In . SVG Version: 2.1.0 Build 142)  -->
  <defs>
    <style>
      .st0, .st1 {
        fill: none;
      }

      .st1 {
        stroke: #000;
        stroke-miterlimit: 10;
        stroke-width: 1.26px;
      }
    </style>
  </defs>
  <g>
    <path d="M455.65,293.63h10.85l-.02-8.82-.04-23.04h0s-.04-23.35-.04-23.35v-5.44s-7.19-.01-7.19-.01h-3.58s-9.95-.02-9.95-.02l-23.43-.04v5.44l19.27.03-20.31,26.51-3.31,4.32-11.95,15.59v8.82h6.79l6.76-8.82,6.94-9.05.05.04,3.3-4.33-.05-.03,25.08-32.74c-.15-.1-.29-.2-.44-.29h.67s.6-.78.6-.78v.78s0,.86,0,.86l.08,45.54h-.08v8.82Z"/>
    <path d="M511.61,293.63h10.85l-.02-8.82-.04-23.04h0s-.04-23.35-.04-23.35v-5.44s-7.19-.01-7.19-.01h-3.58s-9.95-.02-9.95-.02l-23.43-.04v5.44l19.27.03-20.31,26.51-3.31,4.32-11.95,15.59v8.82h6.79l6.76-8.82,6.94-9.05.05.04,3.3-4.33-.05-.03,25.08-32.74c-.15-.1-.29-.2-.44-.29h.67s.6-.78.6-.78v.78s0,.86,0,.86l.08,45.54h-.08v8.82Z"/>
    <polyline class="st0" points="455.65 237.63 429.79 271.47 426.48 275.8"/>
    <polyline class="st0" points="455.65 255.29 455.65 284.82 455.65 293.63"/>
  </g>
  <path d="M545.05,283.46h32.33v8.92h-42.97v-57.29h41.82v8.92h-31.18v39.45ZM543.22,260.61h26.14v5.34h-26.14v-5.34Z"/>
  <path d="M607.01,293.2c-4.47,0-8.76-.64-12.85-1.92-4.09-1.28-7.34-2.93-9.74-4.95l3.68-8.27c2.29,1.8,5.13,3.3,8.51,4.5,3.38,1.2,6.85,1.8,10.39,1.8,3,0,5.43-.33,7.28-.98,1.85-.65,3.22-1.54,4.09-2.66.87-1.12,1.31-2.39,1.31-3.81,0-1.75-.63-3.15-1.88-4.22-1.26-1.06-2.88-1.91-4.87-2.54-1.99-.63-4.2-1.21-6.63-1.76-2.43-.54-4.86-1.19-7.28-1.92-2.43-.74-4.64-1.69-6.63-2.86-1.99-1.17-3.62-2.74-4.87-4.71-1.26-1.96-1.88-4.47-1.88-7.53s.83-5.96,2.5-8.55c1.66-2.59,4.2-4.67,7.61-6.22,3.41-1.56,7.73-2.33,12.97-2.33,3.44,0,6.85.44,10.23,1.31,3.38.87,6.33,2.13,8.84,3.77l-3.36,8.27c-2.57-1.53-5.21-2.66-7.94-3.4-2.73-.74-5.35-1.11-7.86-1.11-2.95,0-5.33.36-7.16,1.06-1.83.71-3.16,1.64-4.01,2.78-.85,1.15-1.27,2.46-1.27,3.93,0,1.75.61,3.15,1.84,4.22,1.23,1.06,2.84,1.9,4.83,2.5,1.99.6,4.22,1.19,6.67,1.76,2.46.57,4.9,1.21,7.33,1.92,2.43.71,4.64,1.64,6.63,2.78,1.99,1.15,3.6,2.7,4.83,4.67,1.23,1.96,1.84,4.45,1.84,7.45s-.83,5.88-2.5,8.47c-1.67,2.59-4.22,4.67-7.65,6.22-3.44,1.56-7.78,2.33-13.01,2.33Z"/>
  <path d="M651.37,292.38h-10.64v-57.29h10.64v57.29ZM760.12,235.08h10.64v57.29h-10.64v-57.29ZM766.58,265.95h-120.53v-5.34h120.53v5.34Z"/>
  <path d="M405.95,366.47v-60.68h10.64v60.68h-10.64ZM415.45,352.96l-.57-12.6,32.3-34.57h11.95l-27.22,29.91-5.89,6.47-10.56,10.8ZM445.89,366.47l-21.94-26.11,7.04-7.78,27.34,33.89h-12.44Z"/>
  <path d="M553.76,366.47v-35.4h10.64v35.4h-10.64Z"/>
  <g>
    <rect x="682.12" y="229.27" width="13.65" height="13.65" transform="translate(34.84 556.31) rotate(-45)"/>
    <rect x="698.6" y="229.27" width="13.65" height="13.65" transform="translate(373.56 -429.66) rotate(45)"/>
    <rect x="715.63" y="229.27" width="13.65" height="13.65" transform="translate(378.55 -441.7) rotate(45)"/>
  </g>
  <rect x="592.22" y="302.35" width="13.65" height="13.65" transform="translate(-43.16 514.15) rotate(-45)"/>
  <rect x="608.71" y="302.35" width="13.65" height="13.65" transform="translate(398.9 -344.69) rotate(45)"/>
  <line x1="543.22" y1="265.94" x2="543.22" y2="260.61"/>
  <polyline points="533.59 325.84 625.5 325.84 625.5 331.18 533.59 331.18"/>
  <path d="M511.61,366.47h10.85l-.02-8.82-.04-23.04h0s-.04-23.35-.04-23.35v-5.44s-7.19-.01-7.19-.01h-3.58s-9.95-.02-9.95-.02v-.04l-4.23,5.44.06.03-20.31,26.51-3.31,4.32-18.7,24.41h13.55l6.76-8.82,6.94-9.05.05.04,3.3-4.33-.05-.03,25.08-32.74c-.15-.1-.29-.2-.44-.29h.67s.6-.78.6-.78v.78s0,.86,0,.86l.08,45.54h-.08v8.82Z"/>
  <rect x="482.96" y="339.06" width="32.02" height="5.34"/>
  <g>
    <g>
      <polygon points="298.75 271.92 298.75 279.65 298.54 279.65 298.53 271.92 298.75 271.92"/>
      <path d="M298.53,271.92l-.04-20.19h0s-.04-20.46-.04-20.46v-4.77s-6.3-.01-6.3-.01h-3.13s-8.72-.02-8.72-.02l-20.54-.03v4.77l16.89.03-17.8,23.23-2.9,3.79-10.47,13.67H72.88v7.73h178.55l5.92-7.73,6.08-7.93,10.36,7.93,10.09,7.73h14.67v-7.73ZM281.63,271.92l-15.3-11.72,21.98-28.69c-.13-.09-.26-.17-.39-.25h.58s.52-.68.52-.68v.68s0,.75,0,.75l.07,39.91h-7.47Z"/>
      <rect x="100.81" y="327.41" width="77.63" height="4.83" transform="translate(469.45 190.19) rotate(90)"/>
      <rect x="137.21" y="359.89" width="134.91" height="8.73"/>
      <rect x="169.78" y="229.11" width="12.88" height="12.88" transform="translate(-114.94 193.6) rotate(-45)"/>
      <rect x="185.33" y="229.11" width="12.88" height="12.88" transform="translate(222.73 -66.61) rotate(45)"/>
      <rect x="201.39" y="229.11" width="12.88" height="12.88" transform="translate(227.43 -77.97) rotate(45)"/>
      <path d="M298.53,337.88v8.37c0,7.22-3.42,13.64-8.73,17.73-3.77,2.91-8.5,4.64-13.63,4.64h-74.2v-8.73h71.78c8.87,0,16.06-7.19,16.06-16.06v-3.52c0-8.87-7.19-16.06-16.06-16.06h-71.78v-8.73h74.2c5.13,0,9.86,1.73,13.63,4.64,5.31,4.09,8.73,10.51,8.73,17.73Z"/>
      <polygon points="202.07 313.48 298.18 298.63 298.94 303.4 202.83 318.25 202.07 313.48"/>
      <g>
        <rect x="98.5" y="339.8" width="53.23" height="4.83" transform="translate(467.33 217.11) rotate(90)"/>
        <path d="M127.53,360.09v8.73h-32.29c-12.35,0-22.36-10.01-22.36-22.36v-30.73h8.73v28.31c0,8.87,7.19,16.06,16.06,16.06h29.86Z"/>
        <rect x="74.56" y="289.04" width="12.88" height="12.88" transform="translate(-185.21 143.82) rotate(-45)"/>
        <rect x="90.11" y="289.04" width="12.88" height="12.88" transform="translate(237.22 18.27) rotate(45)"/>
        <rect x="72.88" y="315.6" width="54.65" height="3.98"/>
      </g>
    </g>
    <text/>
  </g>
  <line class="st1" x1="354.21" y1="226.44" x2="354.21" y2="368.84"/>
</svg>