<?xml version="1.0" encoding="UTF-8"?>
<svg id="Layer_1" xmlns="http://www.w3.org/2000/svg" version="1.1" viewBox="0 0 841.89 595.28">
  <!-- Generator: Adobe Illustrator 29.1.0, SVG Export Plug-In . SVG Version: 2.1.0 Build 142)  -->
  <polygon points="775.58 357.86 775.58 371.79 775.21 371.79 775.18 357.86 775.58 357.86"/>
  <path d="M775.18,357.86l-.06-36.4v-.02l-.07-36.86-.02-8.6-11.34-.02h-5.65s-15.73-.03-15.73-.03l-37.03-.06v8.6l30.44.05-32.09,41.88-5.23,6.83-18.88,24.64h-312v13.93h322.73l10.67-13.93,10.96-14.3,18.67,14.3,18.18,13.93h26.44l-.02-13.93ZM744.72,357.86l-27.58-21.13,39.63-51.73c-.23-.16-.46-.31-.7-.46h1.05s.95-1.23.95-1.23v1.23s0,1.36,0,1.36l.13,71.95h-13.47Z"/>
  <rect x="510.25" y="280.67" width="23.22" height="23.22" transform="translate(-53.82 454.62) rotate(-45)"/>
  <rect x="538.29" y="280.67" width="23.22" height="23.22" transform="translate(367.73 -303.23) rotate(45)"/>
  <rect x="567.24" y="280.67" width="23.22" height="23.22" transform="translate(376.22 -323.7) rotate(45)"/>
  <g>
    <rect x="139.68" y="297.46" width="139.94" height="8.71" transform="translate(511.47 92.17) rotate(90)"/>
    <rect x="205.29" y="356.02" width="164.91" height="15.73"/>
    <path d="M417.81,316.34v15.09c0,13.01-6.17,24.58-15.73,31.95-6.8,5.24-15.33,8.36-24.58,8.36h-133.77v-15.73h129.39c15.99,0,28.96-12.96,28.96-28.96v-6.34c0-15.99-12.96-28.96-28.96-28.96h-129.39v-15.73h133.77c9.25,0,17.78,3.12,24.58,8.36,9.57,7.37,15.73,18.94,15.73,31.95Z"/>
    <polygon points="243.92 272.36 417.18 245.58 418.56 254.18 245.3 280.96 243.92 272.36"/>
  </g>
  <g>
    <rect x="141.77" y="319.55" width="95.71" height="8.69" transform="translate(513.52 134.27) rotate(90)"/>
    <path d="M193.97,356.02v15.69h-58.05c-22.21,0-40.21-18-40.21-40.21v-55.26h15.69v50.89c0,15.95,12.93,28.88,28.88,28.88h53.69Z"/>
    <rect x="98.74" y="228.28" width="23.16" height="23.16" transform="translate(-137.3 148.26) rotate(-45)"/>
    <rect x="126.69" y="228.28" width="23.16" height="23.16" transform="translate(210.11 -27.52) rotate(45)"/>
    <rect x="95.71" y="276.04" width="98.26" height="7.15"/>
  </g>
</svg>