<?xml version="1.0" encoding="UTF-8"?>
<svg id="Layer_1" xmlns="http://www.w3.org/2000/svg" version="1.1" viewBox="0 0 1065.71 595.28">
  <!-- Generator: Adobe Illustrator 29.1.0, SVG Export Plug-In . SVG Version: 2.1.0 Build 142)  -->
  <defs>
    <style>
      .st0 {
        fill: none;
      }
    </style>
  </defs>
  <g>
    <polyline class="st0" points="358.26 302.95 386.22 302.95 408.8 302.95"/>
    <g>
      <path d="M182.03,334.14l-.02-8.85-.04-25.4v-.02l-.06-34.69-.02-8.1h-10.67s-5.31-.02-5.31-.02l-14.8-.03-34.84-.05v8.09l28.65.05-30.2,39.41-4.92,6.42-27.81,36.3h20.14l10.05-13.11,10.31-13.46.07.06,4.92-6.44-.07-.05,37.29-48.67c-.22-.15-.43-.29-.66-.43h.99l.89-1.16v2.44l.12,67.71h-.12v13.11h16.13l-.02-13.11Z"/>
      <path d="M249.12,347.25h16.13l-.02-13.11-.06-34.25v-.02l-.06-34.69-.02-8.1h-10.67s-5.31-.02-5.31-.02l-14.8-.03-34.84-.05v8.09l28.65.05-30.2,39.41-4.92,6.42-10.99,14.34-6.77,8.85v13.11h10.09l10.05-13.11,10.31-13.46.07.06,4.92-6.44-.07-.05,37.29-48.67c-.22-.15-.43-.29-.66-.43h.99l.89-1.16v2.44l.12,67.71h-.12v13.11Z"/>
      <polyline class="st0" points="165.92 263.99 127.48 314.31 122.57 320.74"/>
      <polyline class="st0" points="165.92 290.24 165.92 334.14 165.92 347.25"/>
    </g>
    <path d="M283.01,261.7v77.62h15.82v-77.62h-15.82ZM296.12,298.15v7.93h38.87v-7.93h-38.87Z"/>
    <path d="M422.65,310.22c-1.83-2.92-4.22-5.24-7.18-6.94-2.96-1.7-6.25-3.08-9.86-4.14-3.61-1.05-7.24-2.01-10.89-2.86-3.65-.85-6.96-1.72-9.92-2.61-2.96-.9-5.35-2.13-7.18-3.71-1.82-1.59-2.74-3.67-2.74-6.27,0-2.19.63-4.14,1.89-5.84,1.26-1.71,3.25-3.08,5.96-4.14,2.72-1.05,6.27-1.58,10.65-1.58,3.73,0,7.63.55,11.68,1.64,4.06,1.1,7.99,2.78,11.81,5.05l4.99-12.29c-3.74-2.43-8.12-4.3-13.15-5.6-5.03-1.29-10.1-1.94-15.21-1.94-7.78,0-14.22,1.15-19.28,3.46-5.07,2.32-8.85,5.4-11.32,9.25-2.48,3.86-3.71,8.09-3.71,12.72s.93,8.27,2.8,11.19c1.86,2.92,4.27,5.26,7.24,7,.2.12.4.23.6.34,2.8,1.6,5.88,2.89,9.25,3.92,3.61,1.1,7.22,2.05,10.83,2.86,3.61.81,6.9,1.68,9.86,2.62,2.96.93,5.37,2.19,7.24,3.77,1.87,1.58,2.8,3.67,2.8,6.27,0,2.11-.65,3.99-1.95,5.65-1.3,1.67-3.32,2.99-6.08,3.96-2.76.97-6.37,1.46-10.83,1.46-5.28,0-10.43-.89-15.46-2.68-5.03-1.78-9.24-4.01-12.65-6.69l-5.48,12.29c3.57,3,8.4,5.46,14.48,7.36,6.09,1.91,12.46,2.86,19.11,2.86,7.79,0,14.24-1.15,19.35-3.47,5.11-2.31,8.9-5.39,11.37-9.25,2.48-3.85,3.72-8.05,3.72-12.59s-.92-8.15-2.74-11.07Z"/>
    <path d="M441.08,260.2v85.18h15.82v-85.18h-15.82ZM618.58,260.2v85.18h15.82v-85.18h-15.82ZM448.99,298.16v7.93h179.19v-7.93h-179.19Z"/>
    <path d="M657.31,257.7v90.22h15.81v-90.22h-15.81ZM732.76,344.91l-35.61-44.14-2.61-3.23-10.46,11.56,2.61,3.11,30,35.71h18.5l-2.43-3.01Z"/>
    <path d="M877.05,295.29v52.63h15.82v-52.63h-15.82Z"/>
    <g>
      <rect x="502.63" y="251.56" width="20.3" height="20.3" transform="translate(-34.87 439.24) rotate(-45)"/>
      <rect x="527.13" y="251.56" width="20.3" height="20.3" transform="translate(342.42 -303.26) rotate(45)"/>
      <rect x="552.44" y="251.56" width="20.3" height="20.3" transform="translate(349.83 -321.16) rotate(45)"/>
    </g>
    <rect x="934.25" y="252.59" width="20.3" height="20.3" transform="translate(90.82 744.74) rotate(-45)"/>
    <rect x="958.75" y="252.59" width="20.3" height="20.3" transform="translate(469.57 -608.16) rotate(45)"/>
    <line class="st0" x1="296.12" y1="306.08" x2="296.12" y2="298.15"/>
    <rect x="847.08" y="287.51" width="136.64" height="7.93"/>
    <path d="M814.39,347.92h16.13l-.02-13.12-.06-34.25v-.02l-.06-34.69-.02-8.09-10.67-.02h-5.31l-14.8-.03v-.05l-6.28,8.09.09.04-30.2,39.42-4.92,6.42-25.51,33.29-2.3,3.01h20.14l10.04-13.12,10.32-13.46.07.06,4.82-6.31.09-.12-.06-.05,5.95-7.76,31.34-40.91c-.22-.15-.44-.29-.66-.44h.99s.89-1.15.89-1.15v2.44l.07,40.06.02,7.93.03,19.71h-.12v13.12Z"/>
    <rect x="771.8" y="307.16" width="47.6" height="7.93"/>
  </g>
  <rect x="283.01" y="256.98" width="63.89" height="7.93"/>
  <rect x="283.01" y="339.32" width="63.89" height="7.93"/>
  <polygon points="737.51 257.7 667.15 332.55 661.37 327.11 726.62 257.7 737.51 257.7"/>
</svg>