<?xml version="1.0" encoding="UTF-8"?>
<svg id="Layer_1" data-name="Layer 1" xmlns="http://www.w3.org/2000/svg" viewBox="0 0 454.4 454.4">
  <defs>
    <style>
      .cls-1 {
        fill: #8ccb8a;
      }
    </style>
  </defs>
  <path class="cls-1" d="M227.21,70.76l31.16,31.16,14.65,14.65h64.8v64.8l14.65,14.65,31.16,31.16-31.16,31.16-14.65,14.65v64.81h-64.8l-14.65,14.65-31.16,31.16-31.16-31.16-14.65-14.65h-64.8v-64.8l-14.65-14.65-31.18-31.18,31.18-31.18,14.65-14.65v-64.78h64.8l14.65-14.65,31.16-31.16M227.21,0l-66.54,66.54h-94.11v94.09L0,227.19l66.56,66.56v94.11h94.11l66.54,66.54,66.54-66.54h94.11v-94.12l66.54-66.54-66.54-66.54v-94.11h-94.11L227.21,0h0Z"/>
</svg>